<mxfile host="app.diagrams.net" agent="Mozilla/5.0 (Windows NT 10.0; Win64; x64) AppleWebKit/537.36 (KHTML, like Gecko) Chrome/136.0.0.0 Safari/537.36" version="26.2.14">
  <diagram name="Page-1" id="XxB87LDbaQiaRLkM1g6q">
    <mxGraphModel dx="815" dy="447" grid="1" gridSize="10" guides="1" tooltips="1" connect="1" arrows="1" fold="1" page="1" pageScale="1" pageWidth="827" pageHeight="1169" math="0" shadow="0">
      <root>
        <mxCell id="0" />
        <mxCell id="1" parent="0" />
        <mxCell id="brBgzJzME_HykwPjGTpL-2" value="" style="rounded=0;whiteSpace=wrap;html=1;fillColor=#b1ddf0;strokeColor=#10739e;" vertex="1" parent="1">
          <mxGeometry x="120" y="160" width="290" height="410" as="geometry" />
        </mxCell>
        <mxCell id="brBgzJzME_HykwPjGTpL-37" style="rounded=0;orthogonalLoop=1;jettySize=auto;html=1;entryX=0;entryY=0.5;entryDx=0;entryDy=0;" edge="1" parent="1" source="brBgzJzME_HykwPjGTpL-1" target="brBgzJzME_HykwPjGTpL-34">
          <mxGeometry relative="1" as="geometry" />
        </mxCell>
        <mxCell id="brBgzJzME_HykwPjGTpL-1" value="User" style="shape=umlActor;verticalLabelPosition=bottom;verticalAlign=top;html=1;outlineConnect=0;" vertex="1" parent="1">
          <mxGeometry x="45" y="290" width="30" height="60" as="geometry" />
        </mxCell>
        <mxCell id="brBgzJzME_HykwPjGTpL-6" style="rounded=0;orthogonalLoop=1;jettySize=auto;html=1;entryX=0;entryY=0.5;entryDx=0;entryDy=0;dashed=1;" edge="1" parent="1" source="brBgzJzME_HykwPjGTpL-3" target="brBgzJzME_HykwPjGTpL-5">
          <mxGeometry relative="1" as="geometry" />
        </mxCell>
        <mxCell id="brBgzJzME_HykwPjGTpL-3" value="Modify water intake" style="ellipse;whiteSpace=wrap;html=1;" vertex="1" parent="1">
          <mxGeometry x="130" y="170" width="100" height="40" as="geometry" />
        </mxCell>
        <mxCell id="brBgzJzME_HykwPjGTpL-4" style="rounded=0;orthogonalLoop=1;jettySize=auto;html=1;entryX=0;entryY=0.5;entryDx=0;entryDy=0;" edge="1" parent="1" source="brBgzJzME_HykwPjGTpL-1" target="brBgzJzME_HykwPjGTpL-3">
          <mxGeometry relative="1" as="geometry" />
        </mxCell>
        <mxCell id="brBgzJzME_HykwPjGTpL-5" value="Update water data" style="rounded=0;whiteSpace=wrap;html=1;" vertex="1" parent="1">
          <mxGeometry x="260" y="180" width="110" height="20" as="geometry" />
        </mxCell>
        <mxCell id="brBgzJzME_HykwPjGTpL-7" value="View water intake" style="ellipse;whiteSpace=wrap;html=1;" vertex="1" parent="1">
          <mxGeometry x="130" y="220" width="100" height="40" as="geometry" />
        </mxCell>
        <mxCell id="brBgzJzME_HykwPjGTpL-8" style="rounded=0;orthogonalLoop=1;jettySize=auto;html=1;entryX=0;entryY=0.5;entryDx=0;entryDy=0;" edge="1" parent="1" source="brBgzJzME_HykwPjGTpL-1" target="brBgzJzME_HykwPjGTpL-7">
          <mxGeometry relative="1" as="geometry" />
        </mxCell>
        <mxCell id="brBgzJzME_HykwPjGTpL-11" style="edgeStyle=orthogonalEdgeStyle;rounded=0;orthogonalLoop=1;jettySize=auto;html=1;entryX=1;entryY=0.5;entryDx=0;entryDy=0;dashed=1;" edge="1" parent="1" source="brBgzJzME_HykwPjGTpL-9" target="brBgzJzME_HykwPjGTpL-7">
          <mxGeometry relative="1" as="geometry">
            <Array as="points">
              <mxPoint x="240" y="240" />
              <mxPoint x="240" y="240" />
            </Array>
          </mxGeometry>
        </mxCell>
        <mxCell id="brBgzJzME_HykwPjGTpL-9" value="Display water data" style="rounded=0;whiteSpace=wrap;html=1;" vertex="1" parent="1">
          <mxGeometry x="260" y="230" width="110" height="20" as="geometry" />
        </mxCell>
        <mxCell id="brBgzJzME_HykwPjGTpL-12" value="View set targets" style="ellipse;whiteSpace=wrap;html=1;" vertex="1" parent="1">
          <mxGeometry x="130" y="270" width="100" height="40" as="geometry" />
        </mxCell>
        <mxCell id="brBgzJzME_HykwPjGTpL-13" style="rounded=0;orthogonalLoop=1;jettySize=auto;html=1;entryX=0;entryY=0.5;entryDx=0;entryDy=0;" edge="1" parent="1" source="brBgzJzME_HykwPjGTpL-1" target="brBgzJzME_HykwPjGTpL-12">
          <mxGeometry relative="1" as="geometry" />
        </mxCell>
        <mxCell id="brBgzJzME_HykwPjGTpL-15" style="edgeStyle=orthogonalEdgeStyle;rounded=0;orthogonalLoop=1;jettySize=auto;html=1;entryX=1;entryY=0.5;entryDx=0;entryDy=0;dashed=1;" edge="1" parent="1" source="brBgzJzME_HykwPjGTpL-14" target="brBgzJzME_HykwPjGTpL-12">
          <mxGeometry relative="1" as="geometry">
            <Array as="points">
              <mxPoint x="240" y="290" />
              <mxPoint x="240" y="290" />
            </Array>
          </mxGeometry>
        </mxCell>
        <mxCell id="brBgzJzME_HykwPjGTpL-14" value="Display targets" style="rounded=0;whiteSpace=wrap;html=1;" vertex="1" parent="1">
          <mxGeometry x="260" y="279.69" width="90" height="20.63" as="geometry" />
        </mxCell>
        <mxCell id="brBgzJzME_HykwPjGTpL-16" value="Update targets" style="rounded=0;whiteSpace=wrap;html=1;" vertex="1" parent="1">
          <mxGeometry x="260" y="330" width="90" height="20" as="geometry" />
        </mxCell>
        <mxCell id="brBgzJzME_HykwPjGTpL-18" value="" style="edgeStyle=orthogonalEdgeStyle;rounded=0;orthogonalLoop=1;jettySize=auto;html=1;dashed=1;" edge="1" parent="1" source="brBgzJzME_HykwPjGTpL-17" target="brBgzJzME_HykwPjGTpL-16">
          <mxGeometry relative="1" as="geometry">
            <Array as="points">
              <mxPoint x="250" y="340" />
              <mxPoint x="250" y="340" />
            </Array>
          </mxGeometry>
        </mxCell>
        <mxCell id="brBgzJzME_HykwPjGTpL-17" value="Change set targets" style="ellipse;whiteSpace=wrap;html=1;" vertex="1" parent="1">
          <mxGeometry x="130" y="320" width="100" height="40" as="geometry" />
        </mxCell>
        <mxCell id="brBgzJzME_HykwPjGTpL-19" style="rounded=0;orthogonalLoop=1;jettySize=auto;html=1;entryX=0;entryY=0.5;entryDx=0;entryDy=0;" edge="1" parent="1" source="brBgzJzME_HykwPjGTpL-1" target="brBgzJzME_HykwPjGTpL-17">
          <mxGeometry relative="1" as="geometry" />
        </mxCell>
        <mxCell id="brBgzJzME_HykwPjGTpL-22" style="edgeStyle=orthogonalEdgeStyle;rounded=0;orthogonalLoop=1;jettySize=auto;html=1;entryX=0;entryY=0.5;entryDx=0;entryDy=0;dashed=1;" edge="1" parent="1" source="brBgzJzME_HykwPjGTpL-20" target="brBgzJzME_HykwPjGTpL-21">
          <mxGeometry relative="1" as="geometry">
            <Array as="points">
              <mxPoint x="250" y="390" />
              <mxPoint x="250" y="390" />
            </Array>
          </mxGeometry>
        </mxCell>
        <mxCell id="brBgzJzME_HykwPjGTpL-20" value="Start timer" style="ellipse;whiteSpace=wrap;html=1;" vertex="1" parent="1">
          <mxGeometry x="130" y="370" width="100" height="40" as="geometry" />
        </mxCell>
        <mxCell id="brBgzJzME_HykwPjGTpL-21" value="Change timer state" style="rounded=0;whiteSpace=wrap;html=1;" vertex="1" parent="1">
          <mxGeometry x="260" y="377.5" width="110" height="25" as="geometry" />
        </mxCell>
        <mxCell id="brBgzJzME_HykwPjGTpL-23" style="rounded=0;orthogonalLoop=1;jettySize=auto;html=1;entryX=0.01;entryY=0.549;entryDx=0;entryDy=0;entryPerimeter=0;" edge="1" parent="1" source="brBgzJzME_HykwPjGTpL-1" target="brBgzJzME_HykwPjGTpL-20">
          <mxGeometry relative="1" as="geometry" />
        </mxCell>
        <mxCell id="brBgzJzME_HykwPjGTpL-24" value="Update workouts" style="rounded=0;whiteSpace=wrap;html=1;" vertex="1" parent="1">
          <mxGeometry x="260" y="480" width="100" height="20" as="geometry" />
        </mxCell>
        <mxCell id="brBgzJzME_HykwPjGTpL-26" value="" style="edgeStyle=orthogonalEdgeStyle;rounded=0;orthogonalLoop=1;jettySize=auto;html=1;dashed=1;" edge="1" parent="1" source="brBgzJzME_HykwPjGTpL-25" target="brBgzJzME_HykwPjGTpL-24">
          <mxGeometry relative="1" as="geometry">
            <Array as="points">
              <mxPoint x="250" y="490" />
              <mxPoint x="250" y="490" />
            </Array>
          </mxGeometry>
        </mxCell>
        <mxCell id="brBgzJzME_HykwPjGTpL-25" value="Add workout&amp;nbsp;&lt;div&gt;entry&lt;/div&gt;" style="ellipse;whiteSpace=wrap;html=1;" vertex="1" parent="1">
          <mxGeometry x="130" y="470" width="100" height="40" as="geometry" />
        </mxCell>
        <mxCell id="brBgzJzME_HykwPjGTpL-27" style="rounded=0;orthogonalLoop=1;jettySize=auto;html=1;entryX=0;entryY=0.5;entryDx=0;entryDy=0;" edge="1" parent="1" source="brBgzJzME_HykwPjGTpL-1" target="brBgzJzME_HykwPjGTpL-25">
          <mxGeometry relative="1" as="geometry" />
        </mxCell>
        <mxCell id="brBgzJzME_HykwPjGTpL-28" value="Habitally App" style="text;html=1;align=left;verticalAlign=middle;whiteSpace=wrap;rounded=0;" vertex="1" parent="1">
          <mxGeometry x="120" y="140" width="80" height="20" as="geometry" />
        </mxCell>
        <mxCell id="brBgzJzME_HykwPjGTpL-30" value="View workout entries" style="ellipse;whiteSpace=wrap;html=1;" vertex="1" parent="1">
          <mxGeometry x="130" y="520" width="100" height="40" as="geometry" />
        </mxCell>
        <mxCell id="brBgzJzME_HykwPjGTpL-32" value="" style="edgeStyle=orthogonalEdgeStyle;rounded=0;orthogonalLoop=1;jettySize=auto;html=1;dashed=1;" edge="1" parent="1" source="brBgzJzME_HykwPjGTpL-31" target="brBgzJzME_HykwPjGTpL-30">
          <mxGeometry relative="1" as="geometry">
            <Array as="points">
              <mxPoint x="250" y="540" />
              <mxPoint x="250" y="540" />
            </Array>
          </mxGeometry>
        </mxCell>
        <mxCell id="brBgzJzME_HykwPjGTpL-31" value="Display workouts" style="rounded=0;whiteSpace=wrap;html=1;" vertex="1" parent="1">
          <mxGeometry x="260" y="530" width="100" height="20" as="geometry" />
        </mxCell>
        <mxCell id="brBgzJzME_HykwPjGTpL-33" style="rounded=0;orthogonalLoop=1;jettySize=auto;html=1;entryX=0;entryY=0.5;entryDx=0;entryDy=0;" edge="1" parent="1" source="brBgzJzME_HykwPjGTpL-1" target="brBgzJzME_HykwPjGTpL-30">
          <mxGeometry relative="1" as="geometry" />
        </mxCell>
        <mxCell id="brBgzJzME_HykwPjGTpL-36" value="" style="edgeStyle=orthogonalEdgeStyle;rounded=0;orthogonalLoop=1;jettySize=auto;html=1;dashed=1;" edge="1" parent="1" source="brBgzJzME_HykwPjGTpL-34" target="brBgzJzME_HykwPjGTpL-35">
          <mxGeometry relative="1" as="geometry">
            <Array as="points">
              <mxPoint x="240" y="440" />
              <mxPoint x="240" y="440" />
            </Array>
          </mxGeometry>
        </mxCell>
        <mxCell id="brBgzJzME_HykwPjGTpL-34" value="Stop timer" style="ellipse;whiteSpace=wrap;html=1;" vertex="1" parent="1">
          <mxGeometry x="130" y="420" width="100" height="40" as="geometry" />
        </mxCell>
        <mxCell id="brBgzJzME_HykwPjGTpL-35" value="Change timer state" style="rounded=0;whiteSpace=wrap;html=1;" vertex="1" parent="1">
          <mxGeometry x="260" y="427.5" width="110" height="25" as="geometry" />
        </mxCell>
      </root>
    </mxGraphModel>
  </diagram>
</mxfile>
